<svg width="24" height="24" viewBox="0 0 24 24" fill="none" xmlns="http://www.w3.org/2000/svg">
<path d="M12.0004 13.4008L9.08354 16.3258C8.89914 16.5091 8.66445 16.6008 8.37947 16.6008C8.09448 16.6008 7.85979 16.5091 7.67539 16.3258C7.49206 16.1424 7.40039 15.9091 7.40039 15.6258C7.40039 15.3424 7.49206 15.1091 7.67539 14.9258L10.6004 12.0008L7.67539 9.10898C7.49206 8.92456 7.40039 8.68986 7.40039 8.40488C7.40039 8.11988 7.49206 7.88518 7.67539 7.70078C7.85872 7.51745 8.09206 7.42578 8.37539 7.42578C8.65872 7.42578 8.89206 7.51745 9.07539 7.70078L12.0004 10.6258L14.8922 7.70078C15.0766 7.51745 15.3113 7.42578 15.5963 7.42578C15.8813 7.42578 16.116 7.51745 16.3004 7.70078C16.5004 7.90078 16.6004 8.13828 16.6004 8.41328C16.6004 8.68828 16.5004 8.91745 16.3004 9.10078L13.3754 12.0008L16.3004 14.9176C16.4837 15.102 16.5754 15.3367 16.5754 15.6217C16.5754 15.9067 16.4837 16.1414 16.3004 16.3258C16.1004 16.5258 15.8629 16.6258 15.5879 16.6258C15.3129 16.6258 15.0837 16.5258 14.9004 16.3258L12.0004 13.4008Z" fill="black"/>
</svg>
