<svg width="48" height="48" viewBox="0 0 48 48" fill="none" xmlns="http://www.w3.org/2000/svg">
<g clip-path="url(#clip0_580_2844)">
<path d="M25.78 22.2C22.22 21.02 20.5 20.28 20.5 18.4C20.5 16.36 22.72 15.62 24.12 15.62C26.74 15.62 27.7 17.6 27.92 18.3L31.08 16.96C30.78 16.06 29.44 13.12 26 12.48V10H22V12.52C17.04 13.64 17.02 18.24 17.02 18.44C17.02 22.98 21.52 24.26 23.72 25.06C26.88 26.18 28.28 27.2 28.28 29.12C28.28 31.38 26.18 32.34 24.32 32.34C20.68 32.34 19.64 28.6 19.52 28.16L16.2 29.5C17.46 33.88 20.76 35.06 22 35.42V38H26V35.52C26.8 35.34 31.8 34.34 31.8 29.08C31.8 26.3 30.58 23.86 25.78 22.2ZM6 42H2V30H14V34H9.04C12.26 38.82 17.76 42 24 42C33.94 42 42 33.94 42 24H46C46 36.16 36.16 46 24 46C16.56 46 9.98 42.3 6 36.66V42ZM2 24C2 11.84 11.84 2 24 2C31.44 2 38.02 5.7 42 11.34V6H46V18H34V14H38.96C35.74 9.18 30.24 6 24 6C14.06 6 6 14.06 6 24H2Z" fill="black"/>
</g>
<defs>
<clipPath id="clip0_580_2844">
<rect width="48" height="48" fill="white"/>
</clipPath>
</defs>
</svg>
