<svg width="96" height="96" viewBox="0 0 96 96" fill="none" xmlns="http://www.w3.org/2000/svg">
<path d="M32 80H64V68C64 63.6 62.4333 59.8333 59.3 56.7C56.1667 53.5667 52.4 52 48 52C43.6 52 39.8333 53.5667 36.7 56.7C33.5667 59.8333 32 63.6 32 68V80ZM48 44C52.4 44 56.1667 42.4333 59.3 39.3C62.4333 36.1667 64 32.4 64 28V16H32V28C32 32.4 33.5667 36.1667 36.7 39.3C39.8333 42.4333 43.6 44 48 44ZM76 88H20C18.8667 88 17.916 87.616 17.148 86.848C16.3827 86.0827 16 85.1333 16 84C16 82.8667 16.3827 81.9173 17.148 81.152C17.916 80.384 18.8667 80 20 80H24V68C24 63.9333 24.9507 60.116 26.852 56.548C28.7507 52.9827 31.4 50.1333 34.8 48C31.4 45.8667 28.7507 43.016 26.852 39.448C24.9507 35.8827 24 32.0667 24 28V16H20C18.8667 16 17.916 15.616 17.148 14.848C16.3827 14.0827 16 13.1333 16 12C16 10.8667 16.3827 9.916 17.148 9.148C17.916 8.38267 18.8667 8 20 8H76C77.1333 8 78.0827 8.38267 78.848 9.148C79.616 9.916 80 10.8667 80 12C80 13.1333 79.616 14.0827 78.848 14.848C78.0827 15.616 77.1333 16 76 16H72V28C72 32.0667 71.0507 35.8827 69.152 39.448C67.2507 43.016 64.6 45.8667 61.2 48C64.6 50.1333 67.2507 52.9827 69.152 56.548C71.0507 60.116 72 63.9333 72 68V80H76C77.1333 80 78.0827 80.384 78.848 81.152C79.616 81.9173 80 82.8667 80 84C80 85.1333 79.616 86.0827 78.848 86.848C78.0827 87.616 77.1333 88 76 88Z" fill="black" fill-opacity="0.5"/>
</svg>
