<svg width="24" height="24" viewBox="0 0 24 24" fill="none" xmlns="http://www.w3.org/2000/svg">
<path d="M12 2C9.80078 2 7.6875 2.80469 6.1875 4.40625C4.78906 5.90625 4 7.89844 4 10V10.4062C3 11.207 3 12.5078 3 12.9062C3 14.207 3.98828 15.2891 5.1875 15.6875C6.1875 19.5859 9.39844 21.9062 12 21.9062C14.6016 21.9062 17.8125 19.5859 18.8125 15.6875C20.0117 15.3867 21 14.3008 21 13C21 12.5 21 11.3008 20 10.5V10.0938C20 7.99219 19.2109 6 17.8125 4.5C16.3125 2.80078 14.1992 2 12 2ZM9 7C12.5 11.5 15.6016 5.89453 18 11.5938C18 11.5938 19.1992 11.8984 19 13C18.8008 14.3984 17.1875 14.0938 17.1875 14.0938L17 14.8125C16.3008 18.2109 13.6016 20 12 20C10.3984 20 7.69922 18.2109 7 14.8125L6.90625 14.0938C6.90625 14.0938 5.09375 14.1992 5.09375 13C5.09375 11.6992 6.09375 11.5938 6.09375 11.5938L7 12C7 9.89844 7.80078 7.5 9 7ZM9.5 11C8.67188 11 8 11.6719 8 12.5C8 13.3281 8.67188 14 9.5 14C10.3281 14 11 13.3281 11 12.5C11 11.6719 10.3281 11 9.5 11ZM14.5 11C13.6719 11 13 11.6719 13 12.5C13 13.3281 13.6719 14 14.5 14C15.3281 14 16 13.3281 16 12.5C16 11.6719 15.3281 11 14.5 11Z" fill="black"/>
</svg>
