<svg width="60" height="60" viewBox="0 0 60 60" fill="none" xmlns="http://www.w3.org/2000/svg">
<g clip-path="url(#clip0_2031_1069)">
<path d="M22.975 15.8752C17.875 21.6002 14.375 29.8252 14.05 30.6002L5 26.7252L15.125 16.6002C16.3 15.4252 18 14.9002 19.65 15.2252L22.975 15.8752ZM27.925 42.5002C27.925 42.5002 37.275 38.6252 42.65 33.2502C56.15 19.7502 53.9 9.20021 53.175 6.82521C50.8 6.07521 40.25 3.85021 26.75 17.3502C21.375 22.7252 17.5 32.0752 17.5 32.0752L27.925 42.5002ZM44.125 37.0252C38.4 42.1252 30.175 45.6252 29.4 45.9502L33.275 55.0002L43.4 44.8752C44.575 43.7002 45.1 42.0002 44.775 40.3502L44.125 37.0252ZM22.5 45.0002C22.5 47.0752 21.65 48.9502 20.3 50.3002C17.35 53.2502 5 55.0002 5 55.0002C5 55.0002 6.75 42.6502 9.7 39.7002C11.05 38.3502 12.925 37.5002 15 37.5002C19.15 37.5002 22.5 40.8502 22.5 45.0002ZM32.5 22.5002C32.5 19.7502 34.75 17.5002 37.5 17.5002C40.25 17.5002 42.5 19.7502 42.5 22.5002C42.5 25.2502 40.25 27.5002 37.5 27.5002C34.75 27.5002 32.5 25.2502 32.5 22.5002Z" fill="white"/>
</g>
<defs>
<clipPath id="clip0_2031_1069">
<rect width="60" height="60" fill="white"/>
</clipPath>
</defs>
</svg>
