<svg width="200" height="200" viewBox="0 0 200 200" fill="none" xmlns="http://www.w3.org/2000/svg">
<g clip-path="url(#clip0_580_3001)">
<path d="M150 66.6668H141.666V50.0002C141.666 27.0002 123 8.3335 99.9997 8.3335C76.9997 8.3335 58.333 27.0002 58.333 50.0002V66.6668H49.9997C40.833 66.6668 33.333 74.1668 33.333 83.3335V166.667C33.333 175.833 40.833 183.333 49.9997 183.333H150C159.166 183.333 166.666 175.833 166.666 166.667V83.3335C166.666 74.1668 159.166 66.6668 150 66.6668ZM74.9997 50.0002C74.9997 36.1668 86.1663 25.0002 99.9997 25.0002C113.833 25.0002 125 36.1668 125 50.0002V66.6668H74.9997V50.0002ZM150 166.667H49.9997V83.3335H150V166.667ZM99.9997 141.667C109.166 141.667 116.666 134.167 116.666 125C116.666 115.833 109.166 108.333 99.9997 108.333C90.833 108.333 83.333 115.833 83.333 125C83.333 134.167 90.833 141.667 99.9997 141.667Z" fill="black"/>
</g>
<defs>
<clipPath id="clip0_580_3001">
<rect width="200" height="200" fill="white"/>
</clipPath>
</defs>
</svg>
