<svg width="200" height="200" viewBox="0 0 200 200" fill="none" xmlns="http://www.w3.org/2000/svg">
<g clip-path="url(#clip0_593_3585)">
<path d="M75.0003 114.584C55.5003 114.584 16.667 124.334 16.667 143.75V158.334H133.334V143.75C133.334 124.334 94.5003 114.584 75.0003 114.584ZM36.167 141.667C43.167 136.834 60.0837 131.25 75.0003 131.25C89.917 131.25 106.834 136.834 113.834 141.667H36.167ZM75.0003 100C91.0837 100 104.167 86.917 104.167 70.8337C104.167 54.7503 91.0837 41.667 75.0003 41.667C58.917 41.667 45.8337 54.7503 45.8337 70.8337C45.8337 86.917 58.917 100 75.0003 100ZM75.0003 58.3337C81.917 58.3337 87.5003 63.917 87.5003 70.8337C87.5003 77.7503 81.917 83.3337 75.0003 83.3337C68.0837 83.3337 62.5003 77.7503 62.5003 70.8337C62.5003 63.917 68.0837 58.3337 75.0003 58.3337ZM133.667 115.084C143.334 122.084 150 131.417 150 143.75V158.334H183.334V143.75C183.334 126.917 154.167 117.334 133.667 115.084ZM125 100C141.084 100 154.167 86.917 154.167 70.8337C154.167 54.7503 141.084 41.667 125 41.667C120.5 41.667 116.334 42.7503 112.5 44.5837C117.75 52.0003 120.834 61.0837 120.834 70.8337C120.834 80.5837 117.75 89.667 112.5 97.0837C116.334 98.917 120.5 100 125 100Z" fill="black"/>
</g>
<defs>
<clipPath id="clip0_593_3585">
<rect width="200" height="200" fill="white"/>
</clipPath>
</defs>
</svg>
