<svg width="24" height="24" viewBox="0 0 24 24" fill="none" xmlns="http://www.w3.org/2000/svg">
<g clip-path="url(#clip0_718_3955)">
<path d="M18.39 14.56C16.71 13.7 14.53 13 12 13C9.47 13 7.29 13.7 5.61 14.56C4.61 15.07 4 16.1 4 17.22V20H20V17.22C20 16.1 19.39 15.07 18.39 14.56Z" fill="black" fill-opacity="0.25098"/>
<path d="M10 12C10.17 12 13.83 12 14 12C15.66 12 17 10.66 17 9C17 8.27 16.73 7.6 16.29 7.08C16.42 6.75 16.5 6.38 16.5 6C16.5 4.75 15.73 3.68 14.64 3.23C14 2.48 13.06 2 12 2C10.94 2 10 2.48 9.36 3.23C8.27 3.68 7.5 4.75 7.5 6C7.5 6.38 7.58 6.75 7.71 7.08C7.27 7.6 7 8.27 7 9C7 10.66 8.34 12 10 12Z" fill="black" fill-opacity="0.25098"/>
</g>
<defs>
<clipPath id="clip0_718_3955">
<rect width="24" height="24" fill="white"/>
</clipPath>
</defs>
</svg>
