<svg width="16" height="16" viewBox="0 0 16 16" fill="none" xmlns="http://www.w3.org/2000/svg">
<g clip-path="url(#clip0_1307_1615)">
<path d="M12.2603 9.70602C11.1403 9.13268 9.68699 8.66602 8.00033 8.66602C6.31366 8.66602 4.86033 9.13268 3.74033 9.70602C3.07366 10.046 2.66699 10.7327 2.66699 11.4793V13.3327H13.3337V11.4793C13.3337 10.7327 12.927 10.046 12.2603 9.70602Z" fill="black"/>
<path d="M6.52044 7.99935H9.48044C10.2871 7.99935 10.9071 7.29268 10.8004 6.49268L10.5871 4.85935C10.3804 3.59268 9.28044 2.66602 8.00044 2.66602C6.72044 2.66602 5.62044 3.59268 5.41378 4.85935L5.20044 6.49268C5.09378 7.29268 5.71378 7.99935 6.52044 7.99935Z" fill="black"/>
</g>
<defs>
<clipPath id="clip0_1307_1615">
<rect width="16" height="16" fill="white"/>
</clipPath>
</defs>
</svg>
