<svg width="48" height="48" viewBox="0 0 48 48" fill="none" xmlns="http://www.w3.org/2000/svg">
<g clip-path="url(#clip0_1288_1618)">
<path d="M4 40H8C9.1 40 10 39.1 10 38V20C10 18.9 9.1 18 8 18H4V40ZM43.66 25.76C43.88 25.26 44 24.72 44 24.16V22C44 19.8 42.2 18 40 18H29L30.84 8.7C30.94 8.26 30.88 7.78 30.68 7.38C30.22 6.48 29.64 5.66 28.92 4.94L28 4L15.18 16.82C14.42 17.58 14 18.6 14 19.66V35.34C14 37.9 16.1 40 18.68 40H34.9C36.3 40 37.62 39.26 38.34 38.06L43.66 25.76Z" fill="black"/>
</g>
<defs>
<clipPath id="clip0_1288_1618">
<rect width="48" height="48" fill="white"/>
</clipPath>
</defs>
</svg>
