<svg width="48" height="48" viewBox="0 0 48 48" fill="none" xmlns="http://www.w3.org/2000/svg">
<g clip-path="url(#clip0_1288_1621)">
<path d="M44 8H40C38.9 8 38 8.9 38 10V28C38 29.1 38.9 30 40 30H44V8ZM4.34 22.24C4.12 22.74 4 23.28 4 23.84V26C4 28.2 5.8 30 8 30H19L17.16 39.3C17.06 39.74 17.12 40.22 17.32 40.62C17.78 41.52 18.36 42.34 19.08 43.06L20 44L32.82 31.18C33.58 30.42 34 29.4 34 28.34V12.68C34 10.1 31.9 8 29.32 8H13.12C11.7 8 10.4 8.74 9.68 9.94L4.34 22.24Z" fill="black"/>
</g>
<defs>
<clipPath id="clip0_1288_1621">
<rect width="48" height="48" fill="white"/>
</clipPath>
</defs>
</svg>
