<svg width="24" height="24" viewBox="0 0 24 24" fill="none" xmlns="http://www.w3.org/2000/svg">
<g clip-path="url(#clip0_1526_1616)">
<path opacity="0.3" d="M18.0004 10H6.00039C5.16039 10 4.45039 10.52 4.15039 11.25L15.2604 13.97C15.5704 14.05 15.9004 13.97 16.1404 13.77L19.6304 10.85C19.2604 10.34 18.6704 10 18.0004 10Z" fill="#2DD8A3"/>
<path opacity="0.3" d="M18 6H6C4.9 6 4 6.9 4 8V8.55C4.59 8.21 5.27 8 6 8H18C18.73 8 19.41 8.21 20 8.55V8C20 6.9 19.1 6 18 6Z" fill="#2DD8A3"/>
<path d="M18 4H6C3.79 4 2 5.79 2 8V16C2 18.21 3.79 20 6 20H18C20.21 20 22 18.21 22 16V8C22 5.79 20.21 4 18 4ZM16.14 13.77C15.9 13.97 15.57 14.05 15.26 13.97L4.15 11.25C4.45 10.52 5.16 10 6 10H18C18.67 10 19.26 10.34 19.63 10.84L16.14 13.77ZM20 8.55C19.41 8.21 18.73 8 18 8H6C5.27 8 4.59 8.21 4 8.55V8C4 6.9 4.9 6 6 6H18C19.1 6 20 6.9 20 8V8.55Z" fill="#2DD8A3"/>
</g>
<defs>
<clipPath id="clip0_1526_1616">
<rect width="24" height="24" fill="white"/>
</clipPath>
</defs>
</svg>
