<?xml version="1.0" encoding="UTF-8"?>
<svg id="Layer_2" data-name="Layer 2" xmlns="http://www.w3.org/2000/svg" viewBox="0 0 547.51 109.22">
  <defs>
    <style>
      .cls-1 {
        fill: #fff;
        stroke-width: 0px;
      }
    </style>
  </defs>
  <g id="Layer_1-2" data-name="Layer 1">
    <g>
      <g>
        <path class="cls-1" d="M304.92,12.11v92.4h-14.53V34.89l-25.92,56.44-.06.12h-14.42l-.06-.12-25.92-56.44v69.61h-14.53V12.11c0-4.89,3.97-8.86,8.86-8.86h0c3.46,0,6.61,2.02,8.05,5.16l30.8,67.09,30.8-67.09c1.45-3.15,4.59-5.16,8.05-5.16h0c4.89,0,8.86,3.97,8.86,8.86Z"/>
        <polygon class="cls-1" points="264.53 91.45 264.42 91.45 264.47 91.33 264.53 91.45"/>
        <path class="cls-1" d="M449.84,89.98v14.52h-27.74c-7.88,0-14.27-6.39-14.27-14.27V17.77h-13.84V3.25h14.11c7.88,0,14.27,6.39,14.27,14.27v72.46h27.48Z"/>
        <polygon class="cls-1" points="249.99 91.45 249.88 91.45 249.94 91.33 249.99 91.45"/>
        <path class="cls-1" d="M356.38,29.27c-20.77,0-37.61,16.84-37.61,37.61s16.84,37.62,37.61,37.62,37.61-16.84,37.61-37.62-16.84-37.61-37.61-37.61ZM356.38,90.95c-13.28,0-24.05-10.77-24.05-24.06s10.77-24.05,24.05-24.05,24.05,10.77,24.05,24.05-10.77,24.06-24.05,24.06Z"/>
        <path class="cls-1" d="M533.66,89.98V29.27h-14.53v9.98c-7.05-6.52-16.58-10.35-27.02-9.95-19.58.76-35.5,16.83-36.09,36.42-.64,21.31,16.44,38.78,37.59,38.78,9.85,0,18.81-3.79,25.51-9.99h0c0,5.52,4.47,9.99,9.99,9.99h18.39v-14.52h-13.84ZM493.62,90.95c-13.78,0-24.85-11.59-24.01-25.56.73-11.98,10.46-21.74,22.44-22.5,13.99-.88,25.62,10.2,25.62,24s-10.77,24.06-24.05,24.06Z"/>
      </g>
      <path class="cls-1" d="M133.33,28.04L96.02,2.5c-4.39-3-10.03-3.32-14.73-.84-4.7,2.48-7.62,7.33-7.62,12.65v79.82l-44.93-30.75-14.02,9.53V15.09l44.25,30.27v-17.82L22.35,2.5C17.97-.5,12.33-.82,7.63,1.66,2.92,4.14,0,8.99,0,14.31v86.4l28.7-19.53,37.31,25.54c2.42,1.66,5.23,2.5,8.06,2.5,2.28,0,4.57-.55,6.67-1.65,4.7-2.48,7.62-7.34,7.62-12.66V15.09l44.93,30.75,14.01-9.53v57.82l-44.24-30.28v17.82l36.59,25.04c4.39,3,10.04,3.32,14.73.85,4.71-2.48,7.62-7.34,7.62-12.66V8.51l-28.7,19.53Z"/>
    </g>
  </g>
</svg>